<?xml version="1.0" encoding="UTF-8"?>
<svg xmlns="http://www.w3.org/2000/svg" xmlns:xlink="http://www.w3.org/1999/xlink" width="100pt" height="100pt" viewBox="0 0 100 100" version="1.1">
<g id="surface2683766">
<path style=" stroke:none;fill-rule:nonzero;fill:rgb(100%,100%,100%);fill-opacity:1;" d="M 50 4 C 24.617188 4 4 24.617188 4 50 C 4 75.382812 24.617188 96 50 96 C 75.382812 96 96 75.382812 96 50 C 96 24.617188 75.382812 4 50 4 Z M 50 8 C 73.21875 8 92 26.78125 92 50 C 92 73.21875 73.21875 92 50 92 C 26.78125 92 8 73.21875 8 50 C 8 26.78125 26.78125 8 50 8 Z M 42 20 L 42 26 L 32 26 L 32 74 L 42 74 L 42 80 L 46 80 L 46 74 L 50 74 L 50 80 L 54 80 L 54 73.980469 C 58.597656 73.851562 69.601562 72.5625 69.601562 60.398438 C 69.601562 52 62.398438 49.199219 59.398438 48.800781 L 59.398438 48.601562 C 60.796875 48.203125 67.800781 46 67.800781 37.800781 C 67.800781 27.570312 58.113281 26.222656 54 26.042969 L 54 20 L 50 20 L 50 26 L 46 26 L 46 20 Z M 36.601562 29.800781 L 52.398438 29.800781 C 59.597656 29.800781 63.199219 32.800781 63.199219 38.800781 C 63.199219 40 63 41 62.601562 42 C 62.203125 43 61.402344 43.800781 60.601562 44.601562 C 59.601562 45.402344 58.597656 46 57.199219 46.398438 C 55.800781 46.796875 54.199219 47 52.398438 47 L 36.601562 47 Z M 36.601562 51 L 52.398438 51 C 56.398438 51 59.601562 51.796875 61.800781 53.398438 C 64 55 65 57.398438 65 60.398438 C 65 62.398438 64.601562 64 64 65.199219 C 63.199219 66.398438 62.398438 67.398438 61.199219 68.199219 C 60 69 58.800781 69.601562 57.199219 69.800781 C 55.800781 70 54.199219 70.199219 52.398438 70.199219 L 36.601562 70.199219 Z M 36.601562 51 "/>
</g>
</svg>
