<?xml version="1.0" encoding="UTF-8"?>
<svg xmlns="http://www.w3.org/2000/svg" xmlns:xlink="http://www.w3.org/1999/xlink" width="96pt" height="96pt" viewBox="0 0 96 96" version="1.1">
<g id="surface2670525">
<path style=" stroke:none;fill-rule:nonzero;fill:rgb(100%,100%,100%);fill-opacity:1;" d="M 48 12 C 28.152344 12 12 28.152344 12 48 C 12 67.847656 28.152344 84 48 84 C 67.847656 84 84 67.847656 84 48 C 84 28.152344 67.847656 12 48 12 Z M 48 18 C 64.605469 18 78 31.394531 78 48 C 78 64.605469 64.605469 78 48 78 C 31.394531 78 18 64.605469 18 48 C 18 31.394531 31.394531 18 48 18 Z M 45.085938 26.265625 L 40.382812 44.976562 L 30.867188 47.976562 L 32.679688 53.703125 L 38.660156 51.808594 L 35.09375 66 L 63 66 L 63 60 L 42.785156 60 L 45.382812 49.6875 L 56.632812 46.136719 L 54.820312 40.417969 L 47.105469 42.855469 L 50.914062 27.734375 Z M 45.085938 26.265625 "/>
</g>
</svg>
