<svg width="900" height="1000" viewBox="0 0 900 1000" fill="none" xmlns="http://www.w3.org/2000/svg">
<path d="M551.25 20H53.0456C38.4008 20 26.5298 33.19 26.5298 49.462V950.538C26.5298 966.81 38.4008 980 53.0456 980H551.25C565.894 980 577.765 966.81 577.765 950.538V49.462C577.765 33.19 565.893 20 551.25 20Z" fill="#545554"/>
<path d="M530.981 96.6016H73.2415V846.002H530.981V96.6016Z" fill="white"/>
<path d="M349.635 48.0276H218.656C214.352 48.0276 210.867 51.8976 210.867 56.6816C210.867 61.4656 214.35 65.3356 218.656 65.3356H349.635C353.938 65.3356 357.423 61.4656 357.423 56.6816C357.423 51.8976 353.938 48.0276 349.635 48.0276ZM336.784 913.008C336.784 934.28 321.209 951.408 302.226 951.408C283.081 951.408 267.508 934.282 267.508 913.008C267.508 891.738 283.083 874.612 302.226 874.612C321.211 874.612 336.784 891.736 336.784 913.008Z" fill="#919191"/>
<path d="M873.468 231.68V588.64H822.978L710.801 715.24V588.64H326.465V231.68H873.468Z" fill="#FBD178"/>
<path d="M833.508 276.123H366.48V544.303H833.508V276.123Z" fill="#439F47"/>
<path d="M811.278 300.762H388.692V519.642H811.278V300.762Z" fill="#66BB6A"/>
<path d="M783.306 363.65V461.388C763.367 461.388 747.192 479.332 747.192 501.454L452.79 501.456C452.79 479.334 436.615 461.39 416.676 461.39V363.652C436.615 363.652 452.79 345.708 452.79 323.586L747.192 323.584C747.192 345.706 763.367 363.65 783.306 363.65Z" fill="#439F47"/>
<path d="M658.841 412.523C658.841 448.639 632.492 477.869 599.939 477.869C567.487 477.869 541.14 448.639 541.14 412.523C541.14 376.407 567.487 347.177 599.939 347.177C632.494 347.177 658.841 376.407 658.841 412.523Z" fill="#CCCBCB"/>
<path d="M603.831 406.227H603.573V388.445C607.949 389.141 612.014 390.969 615.765 393.933L621.309 385.231C615.738 381.005 609.827 378.641 603.573 378.133V373.311H598.116V378.041C587.595 378.643 579.527 385.635 579.527 397.101C579.527 409.393 587.357 413.313 598.116 416.161V434.513C593.058 433.627 588.142 430.887 583.365 426.283L577.14 434.513C583.336 440.501 590.327 443.939 598.116 444.821V451.725H603.573V444.917C614.246 444.335 622.843 437.679 622.843 425.761C622.841 413.299 614.802 409.089 603.831 406.227ZM598.116 404.527C593.375 402.837 589.931 401.205 589.931 395.967C589.931 391.119 593.769 388.593 598.116 388.161V404.527ZM603.573 434.795V417.771C608.583 419.439 612.44 421.157 612.44 426.663C612.44 431.731 608.158 434.271 603.573 434.795Z" fill="#439F47"/>
<path d="M735.263 398.897H710.747V426.137H735.263V398.897Z" fill="#66BB6A"/>
<path d="M489.24 398.897H464.724V426.137H489.24V398.897Z" fill="#66BB6A"/>
</svg>
