<svg xmlns="http://www.w3.org/2000/svg" enable-background="new 0 0 50 50" viewBox="0 0 50 50"><path fill="#545554" d="M30.625,1H2.947C2.1334,1,1.4739,1.6595,1.4739,2.4731v45.0538C1.4739,48.3405,2.1334,49,2.947,49h27.678
		c0.8136,0,1.4731-0.6595,1.4731-1.4731V2.4731C32.0981,1.6595,31.4385,1,30.625,1z"/><rect width="25.43" height="37.47" x="4.069" y="4.83" fill="#FFF"/><path fill="#919191" d="M19.4242 2.4015h-7.2766c-.2391 0-.4327.1935-.4327.4327s.1935.4327.4327.4327h7.2766c.2391 0 .4327-.1935.4327-.4327S19.6633 2.4015 19.4242 2.4015zM18.7103 45.6505c0 1.0636-.8653 1.92-1.9199 1.92-1.0636 0-1.9288-.8563-1.9288-1.92 0-1.0635.8653-1.9198 1.9288-1.9198C17.8451 43.7307 18.7103 44.5869 18.7103 45.6505z"/><polygon fill="#FBD178" points="48.526 11.584 48.526 29.432 45.721 29.432 39.489 35.762 39.489 29.432 18.137 29.432 18.137 11.584"/><rect width="25.946" height="13.409" x="20.36" y="13.806" fill="#439F47"/><rect width="23.477" height="10.944" x="21.594" y="15.038" fill="#66BB6A"/><path fill="#439F47" d="M43.517,18.1825l0,4.8869c-1.1077,0-2.0063,0.8972-2.0063,2.0033L25.155,25.0728
		c0-1.1061-0.8986-2.0033-2.0063-2.0033l0-4.8869c1.1077,0,2.0063-0.8972,2.0063-2.0033l16.3557-0.0001
		C41.5107,17.2853,42.4093,18.1825,43.517,18.1825z"/><path fill="#CCCBCB" d="M36.6023,20.626c0,1.8058-1.4638,3.2673-3.2723,3.2673c-1.8029,0-3.2666-1.4615-3.2666-3.2673
		s1.4637-3.2673,3.2666-3.2673C35.1386,17.3587,36.6023,18.8202,36.6023,20.626z"/><path fill="#439F47" d="M33.5462,20.3114h-0.0143v-0.8891c0.2431,0.0348,0.4689,0.1262,0.6773,0.2744l0.308-0.4351
		c-0.3095-0.2113-0.6379-0.3295-0.9853-0.3549v-0.2411l-0.3032,0v0.2365c-0.5845,0.0301-1.0327,0.3797-1.0327,0.953
		c0,0.6146,0.435,0.8106,1.0327,0.953v0.9176c-0.281-0.0443-0.5541-0.1813-0.8195-0.4115l-0.3458,0.4115
		c0.3442,0.2994,0.7326,0.4713,1.1653,0.5154v0.3452l0.3032,0v-0.3404c0.5929-0.0291,1.0705-0.3619,1.0705-0.9578
		C34.6023,20.665,34.1557,20.4545,33.5462,20.3114z M33.2287,20.2264c-0.2634-0.0845-0.4547-0.1661-0.4547-0.428
		c0-0.2424,0.2132-0.3687,0.4547-0.3903L33.2287,20.2264z M33.5319,21.7398l0-0.8512c0.2783,0.0834,0.4926,0.1693,0.4926,0.4446
		C34.0245,21.5866,33.7866,21.7136,33.5319,21.7398z"/><rect width="1.362" height="1.362" x="39.486" y="19.945" fill="#66BB6A"/><rect width="1.362" height="1.362" x="25.818" y="19.945" fill="#66BB6A"/></svg>