<svg width="1152" height="992" viewBox="0 0 1152 992" fill="none" xmlns="http://www.w3.org/2000/svg">
<path d="M393.601 223.804H422.401V355.805C405.601 355.805 393.601 341.404 393.601 327.004V223.804ZM758.401 223.804H729.601V355.805C746.401 355.805 758.401 341.404 758.401 327.004V223.804Z" fill="#E56F25"/>
<path d="M758.401 295.805V214.204C758.401 192.604 741.601 175.804 720.001 175.804H667.201V295.805H758.401Z" fill="#F58634"/>
<path d="M684 617.402H468V749.402H684V617.402Z" fill="#53B1E2"/>
<path d="M463.201 653.402C362.401 653.402 276.001 742.202 271.201 857.402C271.201 864.602 271.201 871.802 271.201 879.002V903.002C271.201 951.002 304.801 991.802 348.001 991.802H808.801C852.001 991.802 885.601 953.402 885.601 903.002V893.402C885.601 874.202 883.201 855.002 880.801 835.802C866.401 730.202 784.801 655.802 691.201 655.802L463.201 653.402Z" fill="#53B1E2"/>
<path d="M535.199 471C518.399 490.2 501.599 595.8 496.799 612.6C484.799 643.8 513.599 682.2 539.999 708.6C561.599 730.2 590.399 730.2 611.999 708.6C638.399 682.2 667.199 646.2 655.199 612.6C650.399 595.8 633.599 490.2 616.799 471H535.199Z" fill="#FBB444"/>
<path d="M684 617.402L592.8 687.002L614.4 718.202C624 732.602 643.2 735.002 655.2 723.002L722.4 655.802L684 617.402ZM468 617.402L559.2 687.002L537.6 718.202C528 732.602 508.8 735.002 496.8 723.002L432 655.802L468 617.402Z" fill="#E7E3E6"/>
<path d="M424.799 283.796V451.796C424.799 478.196 431.999 504.596 446.399 526.196L479.999 576.596C525.599 646.196 628.799 646.196 674.399 576.596L707.999 526.196C722.399 504.596 729.599 478.196 729.599 451.796V283.796C729.599 257.396 707.999 238.196 683.999 238.196H472.799C443.999 238.196 424.799 257.396 424.799 283.796Z" fill="#FFC966"/>
<path d="M746.399 432.604H729.599V355.804H746.399C758.399 355.804 765.599 365.404 765.599 375.004V413.404C765.599 423.004 755.999 432.604 746.399 432.604ZM405.599 432.604H422.399V355.804H405.599C393.599 355.804 386.399 365.404 386.399 375.004V413.404C386.399 423.004 395.999 432.604 405.599 432.604Z" fill="#4E4C4D"/>
<path d="M676.799 528.604H616.799V511.804H676.799C705.599 511.804 727.199 490.204 727.199 461.404V415.804H743.999V461.404C746.399 497.404 715.199 528.604 676.799 528.604Z" fill="#4E4C4D"/>
<path d="M530.399 511.796C537.599 530.996 554.399 545.396 575.999 545.396C597.599 545.396 614.399 530.996 621.599 511.796H530.399ZM595.199 468.596C592.799 461.396 585.599 454.196 575.999 454.196C566.399 454.196 559.199 461.396 556.799 468.596H595.199Z" fill="#FBB444"/>
<path d="M621.601 543C634.855 543 645.601 532.255 645.601 519C645.601 505.745 634.855 495 621.601 495C608.346 495 597.601 505.745 597.601 519C597.601 532.255 608.346 543 621.601 543Z" fill="#656766"/>
<path d="M643.199 295.805H429.599C398.399 295.805 374.399 271.804 374.399 240.604V151.804H638.399C659.999 151.804 676.799 168.604 676.799 190.204V262.204C676.799 281.404 662.399 295.805 643.199 295.805ZM734.399 209.404H676.799V262.204C676.799 281.404 691.199 295.805 710.399 295.805H734.399V209.404Z" fill="#F58634"/>
<path d="M1152 48.5977V173.398C1152 199.798 1130.4 221.398 1104 221.398H945.6L883.2 283.798C873.6 293.398 859.2 286.198 859.2 274.198V221.398H840C813.6 221.398 792 199.798 792 173.398V48.5977C792 22.1977 813.6 0.597656 840 0.597656H1104C1130.4 0.597656 1152 22.1977 1152 48.5977Z" fill="#85BD57"/>
<path d="M880.801 142.204C898.032 142.204 912.001 128.236 912.001 111.004C912.001 93.7732 898.032 79.8044 880.801 79.8044C863.569 79.8044 849.601 93.7732 849.601 111.004C849.601 128.236 863.569 142.204 880.801 142.204Z" fill="white"/>
<path d="M971.999 142.204C989.23 142.204 1003.2 128.236 1003.2 111.004C1003.2 93.7732 989.23 79.8044 971.999 79.8044C954.768 79.8044 940.799 93.7732 940.799 111.004C940.799 128.236 954.768 142.204 971.999 142.204Z" fill="white"/>
<path d="M1065.6 142.204C1082.83 142.204 1096.8 128.236 1096.8 111.004C1096.8 93.7732 1082.83 79.8044 1065.6 79.8044C1048.37 79.8044 1034.4 93.7732 1034.4 111.004C1034.4 128.236 1048.37 142.204 1065.6 142.204Z" fill="white"/>
<path d="M772.8 864.598C765.6 864.598 760.8 871.798 760.8 876.598V991.798H787.2V876.598C784.8 871.798 777.6 864.598 772.8 864.598ZM384 864.598C376.8 864.598 372 871.798 372 876.598V991.798H398.4V876.598C398.4 871.798 391.2 864.598 384 864.598Z" fill="#22A7D4"/>
<path d="M575.999 799.802C586.603 799.802 595.199 791.206 595.199 780.602C595.199 769.999 586.603 761.402 575.999 761.402C565.395 761.402 556.799 769.999 556.799 780.602C556.799 791.206 565.395 799.802 575.999 799.802Z" fill="#E7E3E6"/>
<path d="M575.999 869.4C586.603 869.4 595.199 860.804 595.199 850.2C595.199 839.596 586.603 831 575.999 831C565.395 831 556.799 839.596 556.799 850.2C556.799 860.804 565.395 869.4 575.999 869.4Z" fill="#E7E3E6"/>
<path d="M575.999 936.596C586.603 936.596 595.199 927.999 595.199 917.396C595.199 906.792 586.603 898.196 575.999 898.196C565.395 898.196 556.799 906.792 556.799 917.396C556.799 927.999 565.395 936.596 575.999 936.596Z" fill="#E7E3E6"/>
<path d="M177.6 696.602C275.686 696.602 355.2 617.088 355.2 519.002C355.2 420.917 275.686 341.402 177.6 341.402C79.5142 341.402 0 420.917 0 519.002C0 617.088 79.5142 696.602 177.6 696.602Z" fill="#E85650"/>
<path d="M681.599 386.998H623.999C619.199 386.998 616.799 384.598 616.799 379.798C616.799 374.998 619.199 372.598 623.999 372.598H681.599C686.399 372.598 688.799 374.998 688.799 379.798C688.799 382.198 686.399 386.998 681.599 386.998Z" fill="#E56F25"/>
<path d="M652.8 411.002C662.078 411.002 669.6 403.481 669.6 394.202C669.6 384.924 662.078 377.402 652.8 377.402C643.522 377.402 636 384.924 636 394.202C636 403.481 643.522 411.002 652.8 411.002Z" fill="#656766"/>
<path d="M528.001 386.998H470.401C465.601 386.998 463.201 384.598 463.201 379.798C463.201 374.998 465.601 372.598 470.401 372.598H528.001C532.801 372.598 535.201 374.998 535.201 379.798C535.201 382.198 532.801 386.998 528.001 386.998Z" fill="#E56F25"/>
<path d="M499.199 411.002C508.478 411.002 515.999 403.481 515.999 394.202C515.999 384.924 508.478 377.402 499.199 377.402C489.921 377.402 482.399 384.924 482.399 394.202C482.399 403.481 489.921 411.002 499.199 411.002Z" fill="#656766"/>
<path d="M74.3994 509.404C76.7994 507.004 76.7994 504.604 76.7994 499.804C76.7994 495.004 76.7994 495.004 74.3994 492.604C71.9994 490.204 71.9994 490.204 67.1994 490.204C62.3994 490.204 57.5994 495.004 52.7994 502.204L38.3994 492.604C43.1994 485.404 45.5994 480.604 50.3994 478.204C55.1994 475.804 59.9994 473.404 69.5994 473.404C79.1994 473.404 83.9994 475.804 88.7994 480.604C93.5994 485.404 95.9994 492.604 95.9994 499.804C95.9994 504.604 95.9994 509.404 93.5994 511.804C91.1994 514.204 86.3994 521.404 81.5994 526.204L67.1994 543.004H100.799V559.804H38.3994V545.404L62.3994 519.004C69.5994 516.604 71.9994 511.804 74.3994 509.404ZM143.999 523.804V509.404H163.199V523.804H172.799V540.604H163.199V559.804H143.999V540.604H110.399V526.204L141.599 475.804H163.199L134.399 523.804H143.999V523.804ZM230.399 463.804H247.199L196.799 574.204H179.999L230.399 463.804ZM256.799 504.604V478.204H319.199V492.604L285.599 562.204H263.999L297.599 492.604H275.999V504.604H256.799Z" fill="white"/>
</svg>
