<svg width="750" height="992" viewBox="0 0 750 992" fill="none" xmlns="http://www.w3.org/2000/svg">
<g clip-path="url(#clip0)">
<path d="M491.258 988.287H67.0256C30.0083 988.287 0 956.279 0 916.793V71.494C0 32.0088 30.0083 0 67.0256 0H491.258C528.275 0 558.283 32.0088 558.283 71.494V916.793C558.283 956.279 528.275 988.287 491.258 988.287Z" fill="#373E49"/>
<path d="M386.419 43.373C386.419 62.3509 371.996 77.7352 354.204 77.7352H204.079C186.288 77.7352 171.865 62.3506 171.865 43.373H65.7549C49.1517 43.373 35.6923 57.7297 35.6923 75.4398V902.709C35.6923 920.419 49.1517 934.776 65.7549 934.776H492.529C509.132 934.776 522.591 920.419 522.591 902.709V75.4398C522.591 57.7297 509.132 43.373 492.529 43.373H386.419Z" fill="url(#paint0_linear)"/>
<path d="M559.313 578.629H207.345V687.601H559.313V578.629Z" fill="url(#paint1_linear)"/>
<path d="M559.313 676.86H207.345V785.831H559.313V676.86Z" fill="url(#paint2_linear)"/>
<path d="M559.313 781.647H207.345V890.619H559.313V781.647Z" fill="url(#paint3_linear)"/>
<path d="M559.313 879.877H207.345V988.849H559.313V879.877Z" fill="url(#paint4_linear)"/>
<path d="M205.014 580.168L35.6923 784.094V902.709C35.6923 920.419 49.1517 934.776 65.7551 934.776H205.233L205.014 580.168Z" fill="url(#paint5_linear)"/>
<path d="M458.524 836.408C458.524 750.809 523.578 680.868 603.827 680.868C684.076 680.868 749.131 750.809 749.131 836.408C749.131 922.007 684.076 991.398 603.827 991.398C523.578 991.398 458.524 922.007 458.524 836.408Z" fill="#FFB600"/>
<path d="M603.827 945.914C660.526 945.914 706.49 896.887 706.49 836.408C706.49 775.929 660.526 726.901 603.827 726.901C547.128 726.901 501.165 775.929 501.165 836.408C501.165 896.887 547.128 945.914 603.827 945.914Z" fill="#FFDA00"/>
<path d="M711.197 527.713L690.642 511.133L658.496 556.473L679.051 573.054L711.197 527.713Z" fill="#FFDA00"/>
<path d="M621.437 489.106L596.994 497.818L613.884 551.734L638.327 543.022L621.437 489.106Z" fill="#FFDA00"/>
<path d="M749.853 618.803L749.987 591.314L696.694 591.019L696.56 618.507L749.853 618.803Z" fill="#FFDA00"/>
<path d="M200.907 363.85C181.984 363.85 166.739 357.453 155.175 344.655C143.609 331.859 137.828 314.642 137.828 293.003C137.828 269.388 143.98 250.653 156.288 236.8C168.593 222.948 185.012 216.021 205.546 216.021C225.212 216.021 240.579 222.288 251.649 234.822C262.718 247.356 268.254 264.969 268.254 287.66C268.254 311.012 262.132 329.549 249.888 343.269C237.642 356.992 221.316 363.85 200.907 363.85ZM395.156 219.978L221.872 503.764H176.603L349.517 219.978H395.156V219.978ZM204.433 250.85C186.372 250.85 177.345 264.243 177.345 291.024C177.345 316.355 185.94 329.02 203.134 329.02C220.695 329.02 229.479 315.829 229.479 289.441C229.479 263.714 221.13 250.85 204.433 250.85ZM366.584 507.722C347.661 507.722 332.416 501.325 320.852 488.526C309.286 475.731 303.505 458.514 303.505 436.875C303.505 413.259 309.657 394.525 321.965 380.671C334.272 366.818 350.691 359.892 371.223 359.892C391.011 359.892 406.41 366.095 417.421 378.495C428.427 390.898 433.933 408.445 433.933 431.136C433.933 454.488 427.809 473.091 415.565 486.943C403.32 500.796 386.993 507.722 366.584 507.722ZM369.553 394.722C351.618 394.722 342.651 408.115 342.651 434.895C342.651 460.227 351.371 472.892 368.811 472.892C386.373 472.892 395.156 459.701 395.156 433.313C395.156 421.043 392.805 411.544 388.106 404.815C383.405 398.087 377.221 394.722 369.553 394.722Z" fill="#282D35"/>
</g>
<defs>
<linearGradient id="paint0_linear" x1="35.6921" y1="489.074" x2="522.591" y2="489.074" gradientUnits="userSpaceOnUse">
<stop stop-color="#1BEA87"/>
<stop offset="0.345" stop-color="#1AD57C"/>
<stop offset="0.713" stop-color="#19C573"/>
<stop offset="1" stop-color="#19BF70"/>
</linearGradient>
<linearGradient id="paint1_linear" x1="207.345" y1="633.115" x2="559.313" y2="633.115" gradientUnits="userSpaceOnUse">
<stop stop-color="#FFB600"/>
<stop offset="1" stop-color="#FFDA00"/>
</linearGradient>
<linearGradient id="paint2_linear" x1="207.345" y1="731.346" x2="559.313" y2="731.346" gradientUnits="userSpaceOnUse">
<stop stop-color="#FFB600"/>
<stop offset="1" stop-color="#FF9100"/>
</linearGradient>
<linearGradient id="paint3_linear" x1="207.345" y1="836.133" x2="559.313" y2="836.133" gradientUnits="userSpaceOnUse">
<stop stop-color="#FFB600"/>
<stop offset="1" stop-color="#FFDA00"/>
</linearGradient>
<linearGradient id="paint4_linear" x1="207.345" y1="934.363" x2="559.313" y2="934.363" gradientUnits="userSpaceOnUse">
<stop stop-color="#FFB600"/>
<stop offset="1" stop-color="#FF9100"/>
</linearGradient>
<linearGradient id="paint5_linear" x1="70.4144" y1="719.945" x2="264.619" y2="825.061" gradientUnits="userSpaceOnUse">
<stop stop-color="#06994A"/>
<stop offset="0.227" stop-color="#079F4F"/>
<stop offset="0.519" stop-color="#0AAF5C"/>
<stop offset="0.844" stop-color="#0FC971"/>
<stop offset="1" stop-color="#12D87E"/>
</linearGradient>
<clipPath id="clip0">
<rect width="750" height="991.398" fill="white"/>
</clipPath>
</defs>
</svg>
