<svg xmlns="http://www.w3.org/2000/svg" enable-background="new 0 0 2957.508 3665.085" viewBox="0 0 2957.508 3665.085"><path fill="#373e49" d="M1937.199,3653.585H264.305C118.333,3653.585,0,3535.252,0,3389.28V264.305
		C0,118.333,118.333,0,264.305,0h1672.894c145.972,0,264.305,118.333,264.305,264.305V3389.28
		C2201.504,3535.252,2083.171,3653.585,1937.199,3653.585z"/><linearGradient id="a" x1="140.746" x2="2060.758" y1="1808.052" y2="1808.052" gradientUnits="userSpaceOnUse"><stop offset="0" stop-color="#1bea87"/><stop offset=".345" stop-color="#1ad57c"/><stop offset=".713" stop-color="#19c573"/><stop offset="1" stop-color="#19bf70"/></linearGradient><path fill="url(#a)" d="M1523.783,160.345L1523.783,160.345c0,70.159-56.875,127.033-127.033,127.033H804.755
		c-70.158,0-127.033-56.875-127.033-127.033v0H259.294c-65.472,0-118.547,53.075-118.547,118.547v3058.321
		c0,65.472,53.075,118.547,118.547,118.547h1682.917c65.472,0,118.547-53.075,118.547-118.547V278.892
		c0-65.472-53.075-118.547-118.547-118.547H1523.783z"/><linearGradient id="b" x1="817.632" x2="2205.563" y1="2340.554" y2="2340.554" gradientUnits="userSpaceOnUse"><stop offset="0" stop-color="#ffb600"/><stop offset="1" stop-color="#ffda00"/></linearGradient><rect width="1387.931" height="402.856" x="817.632" y="2139.126" fill="url(#b)"/><linearGradient id="c" x1="817.632" x2="2205.563" y1="2703.701" y2="2703.701" gradientUnits="userSpaceOnUse"><stop offset="0" stop-color="#ffb600"/><stop offset="1" stop-color="#ff9100"/></linearGradient><rect width="1387.931" height="402.856" x="817.632" y="2502.272" fill="url(#c)"/><linearGradient id="d" x1="817.632" x2="2205.563" y1="3091.088" y2="3091.088" gradientUnits="userSpaceOnUse"><stop offset="0" stop-color="#ffb600"/><stop offset="1" stop-color="#ffda00"/></linearGradient><rect width="1387.931" height="402.856" x="817.632" y="2889.659" fill="url(#d)"/><linearGradient id="e" x1="817.632" x2="2205.563" y1="3454.234" y2="3454.234" gradientUnits="userSpaceOnUse"><stop offset="0" stop-color="#ffb600"/><stop offset="1" stop-color="#ff9100"/></linearGradient><rect width="1387.931" height="402.856" x="817.632" y="3252.806" fill="url(#e)"/><linearGradient id="f" x1="277.668" x2="1020.299" y1="2661.553" y2="3090.311" gradientUnits="userSpaceOnUse"><stop offset="0" stop-color="#06994a"/><stop offset=".227" stop-color="#079f4f"/><stop offset=".519" stop-color="#0aaf5c"/><stop offset=".844" stop-color="#0fc971"/><stop offset="1" stop-color="#12d87e"/></linearGradient><path fill="url(#f)" d="M808.441,2144.816l-667.694,753.891v438.506c0,65.469,53.075,118.548,118.548,118.548
		h550.011L808.441,2144.816z"/><path fill="#ffb600" d="M1808.118,3092.104c0-316.448,256.532-575.014,572.981-575.014s572.981,258.565,572.981,575.014
		s-256.532,572.981-572.981,572.981S1808.118,3408.553,1808.118,3092.104z"/><circle cx="2381.099" cy="3092.104" r="404.833" fill="#ffda00"/><rect width="101.624" height="210.153" x="2649.934" y="1898.905" fill="#ffda00" transform="rotate(37.098 2700.553 2003.779)"/><rect width="101.624" height="210.153" x="2384.887" y="1818.739" fill="#ffda00" transform="rotate(-18.477 2436.032 1924.033)"/><rect width="101.624" height="210.153" x="2801.357" y="2131.19" fill="#ffda00" transform="rotate(90.298 2852.133 2236.25)"/><path fill="#282d35" d="M792.247,1345.112c-74.622,0-134.739-23.649-180.338-70.963
			c-45.61-47.303-68.405-110.953-68.405-190.949c0-87.304,24.257-156.563,72.793-207.778
			c48.525-51.209,113.27-76.819,194.242-76.819c77.548,0,138.146,23.172,181.801,69.506
			c43.649,46.339,65.479,111.451,65.479,195.337c0,86.329-24.142,154.86-72.426,205.581
			C937.103,1319.759,872.725,1345.112,792.247,1345.112z M1558.235,813.234L874.916,1862.357H696.408l681.856-1049.123H1558.235z
			 M806.15,927.365c-71.22,0-106.817,49.511-106.817,148.516c0,93.648,33.893,140.469,101.695,140.469
			c69.248,0,103.886-48.766,103.886-146.319C904.914,974.92,871.991,927.365,806.15,927.365z M1445.568,1876.989
			c-74.622,0-134.739-23.649-180.338-70.963c-45.61-47.303-68.405-110.953-68.405-190.949c0-87.304,24.257-156.563,72.793-207.778
			c48.53-51.214,113.276-76.819,194.242-76.819c78.03,0,138.754,22.931,182.173,68.772c43.403,45.852,65.112,110.723,65.112,194.609
			c0,86.329-24.147,155.101-72.431,206.31C1590.43,1851.385,1526.046,1876.989,1445.568,1876.989z M1457.274,1459.242
			c-70.722,0-106.083,49.511-106.083,148.516c0,93.648,34.386,140.469,103.158,140.469c69.254,0,103.886-48.766,103.886-146.319
			c0-45.359-9.269-80.478-27.801-105.354C1511.896,1471.683,1487.513,1459.242,1457.274,1459.242z"/></svg>