<svg width="930" height="949" viewBox="0 0 930 949" fill="none" xmlns="http://www.w3.org/2000/svg">
<path fill-rule="evenodd" clip-rule="evenodd" d="M490.541 0.322744C585.278 -4.90611 669.485 54.307 744.763 112.11C818.29 168.57 882.974 237.187 913.2 324.868C943.797 413.623 925.713 506.644 912.829 599.643C896.887 714.708 927.928 867.698 829.473 929.215C729.406 991.738 605.871 888.308 490.541 863.495C405.48 845.195 319.418 845.028 243.176 803.077C157.864 756.135 70.9876 700.747 32.2781 611.342C-8.24179 517.757 -12.7235 405.016 30.9211 312.849C72.5079 225.027 175.586 193.707 255.906 139.092C332.936 86.7145 397.557 5.45488 490.541 0.322744Z" fill="url(#paint0_linear)"/>
<defs>
<linearGradient id="paint0_linear" x1="321.054" y1="225.338" x2="465.237" y2="948.953" gradientUnits="userSpaceOnUse">
<stop stop-color="#C9B6E4"/>
<stop offset="0.6875" stop-color="#BE9FE1"/>
</linearGradient>
</defs>
</svg>
